<svg xmlns="http://www.w3.org/2000/svg" viewBox="-100 0 1000 1200" filter="url(#filter)">
  <defs>
    <style>
      path {
        fill: #fff;
      }
    </style>
  </defs>
    <filter id="filter" x="-10%" y="-10%" width="100%" height="100%" filterUnits="objectBoundingBox" primitiveUnits="userSpaceOnUse" color-interpolation-filters="linearRGB">
      <feDropShadow stdDeviation="1 1" in="SourceGraphic" dx="-3" dy="2" flood-color="#85878c" flood-opacity="0.7" x="0%" y="0%" width="100%" height="100%" result="dropShadow"/>
    </filter>
    <path d="M593.77244,516.75909c208.58121-9.93245,195.338-122.50009,314.52725-105.946,135.74336,19.86489,119.18929,201.95962,0,261.55423-46.35137,19.86489-122.50011,26.48648-132.43253-33.10813,0-19.86489,0-49.6622,49.6622-33.10813-13.24324,0-33.10813,0-26.48648,33.10813,9.93242,33.10813,109.25681,13.24324,119.18929-72.83792,9.93242-122.50008-79.4595-33.10813-192.0272-26.48648C666.61035,549.86725,560.6643,513.44829,593.77244,516.75909Z" transform="translate(-103.87548 0)"/>
    <path d="M656.67794,573.04291c26.48648,0,59.59461,33.10813,79.4595,46.35137C756.00234,639.25917,554.04272,1049.8,527.5562,1049.8s-92.70277-13.24324-109.25684-33.10813l19.86489,9.93241C461.33994,1029.93517,669.92118,602.84021,656.67794,573.04291Z" transform="translate(-103.87548 0)"/>
    <path d="M368.63716,937.23236c9.93245,46.35137-62.90544,13.24324-92.70278-33.10813-26.48651-39.72978-79.45952-142.365-33.10813-208.58127,62.90544-92.70275,178.78394-26.48648,195.338-9.93242v-49.6622c-33.10813-46.35137-59.59464-59.59461-89.392-254.93261-26.48651-241.68937,59.59465-278.1083,142.365-254.93261,132.43253,39.72975,178.7839,238.37854,178.7839,248.311s9.93241,132.43253,33.10813-9.93245C729.51579,228.71833,640.12387,76.42092,494.44807,26.75872,421.61019.27223,213.029-49.39,140.191,132.70475c-86.08114,208.58123,122.5001,423.78409,105.946,443.649C226.2722,589.597,80.59642,642.57,107.08293,801.489s182.09473,228.4461,254.93261,241.68934,49.6622-105.946,49.6622-122.50012L332.2182,834.59708C335.529,831.28638,355.39392,864.39451,368.63716,937.23236Z" transform="translate(-103.87548 0)"/>
</svg>
